<mxfile host="app.diagrams.net" modified="2021-07-17T14:02:23.676Z" agent="5.0 (Macintosh; Intel Mac OS X 10_15_7) AppleWebKit/605.1.15 (KHTML, like Gecko) Version/14.1.1 Safari/605.1.15" etag="QFFP99Wy4FcnSJ3kIovT" version="14.6.11" type="github">
  <diagram id="lZQT7Vvz7be-4BXXcW4u" name="第 1 页">
    <mxGraphModel dx="1163" dy="712" grid="1" gridSize="10" guides="1" tooltips="1" connect="1" arrows="1" fold="1" page="1" pageScale="1" pageWidth="827" pageHeight="1169" math="0" shadow="0">
      <root>
        <mxCell id="0" />
        <mxCell id="1" parent="0" />
        <mxCell id="o9uSASRG7nuC8S3Wqp0y-1" value="H" style="rounded=1;whiteSpace=wrap;html=1;fontSize=16;fillColor=#fff2cc;strokeColor=#d6b656;" vertex="1" parent="1">
          <mxGeometry x="200" y="230" width="120" height="60" as="geometry" />
        </mxCell>
        <mxCell id="o9uSASRG7nuC8S3Wqp0y-2" value="i.I am&amp;nbsp;&lt;span&gt;X&lt;/span&gt;iaolin" style="rounded=1;whiteSpace=wrap;html=1;fontSize=16;fillColor=#dae8fc;strokeColor=#6c8ebf;" vertex="1" parent="1">
          <mxGeometry x="350" y="230" width="140" height="60" as="geometry" />
        </mxCell>
        <mxCell id="o9uSASRG7nuC8S3Wqp0y-3" value="TCP 报文1" style="text;html=1;align=center;verticalAlign=middle;resizable=0;points=[];autosize=1;strokeColor=none;fontSize=16;" vertex="1" parent="1">
          <mxGeometry x="215" y="310" width="90" height="20" as="geometry" />
        </mxCell>
        <mxCell id="o9uSASRG7nuC8S3Wqp0y-4" value="TCP 报文2" style="text;html=1;align=center;verticalAlign=middle;resizable=0;points=[];autosize=1;strokeColor=none;fontSize=16;" vertex="1" parent="1">
          <mxGeometry x="365" y="310" width="90" height="20" as="geometry" />
        </mxCell>
      </root>
    </mxGraphModel>
  </diagram>
</mxfile>
